<svg xmlns="http://www.w3.org/2000/svg" width="700" height="342" viewBox="0 0 700 342" font-family="Segoe UI, SF Pro Display, Helvetica Neue, Arial, sans-serif" role="img" aria-label="Tech stack: Java, Python, TypeScript, JavaScript, Swift, Spring Boot, Spring AI, Angular, OpenCV, Git, GitHub, Maven, Xcode">
  <title>Aadith BK &#8212; Tech Stack</title>
  <defs>
    <linearGradient id="bord" x1="0" y1="0" x2="1" y2="1">
      <stop offset="0%" stop-color="#7c3aed"/>
      <stop offset="50%" stop-color="#22d3ee"/>
      <stop offset="100%" stop-color="#7c3aed"/>
    </linearGradient>
    <linearGradient id="acc" x1="0" y1="0" x2="1" y2="0">
      <stop offset="0%" stop-color="#a78bfa"/>
      <stop offset="100%" stop-color="#22d3ee"/>
    </linearGradient>
    <linearGradient id="div" x1="0" y1="0" x2="1" y2="0">
      <stop offset="0%" stop-color="#7c3aed" stop-opacity="0.9"/>
      <stop offset="45%" stop-color="#22d3ee" stop-opacity="0.45"/>
      <stop offset="100%" stop-color="#22d3ee" stop-opacity="0"/>
    </linearGradient>
    <radialGradient id="glowL" cx="0" cy="0" r="1">
      <stop offset="0%" stop-color="#7c3aed" stop-opacity="0.24"/>
      <stop offset="100%" stop-color="#7c3aed" stop-opacity="0"/>
    </radialGradient>
    <radialGradient id="glowR" cx="1" cy="0" r="1">
      <stop offset="0%" stop-color="#06b6d4" stop-opacity="0.22"/>
      <stop offset="100%" stop-color="#06b6d4" stop-opacity="0"/>
    </radialGradient>
    <clipPath id="panel"><rect x="2" y="2" width="696" height="338" rx="18"/></clipPath>
  </defs>

  <rect x="2" y="2" width="696" height="338" rx="18" fill="#0d1117"/>
  <g clip-path="url(#panel)">
    <rect x="2" y="2" width="430" height="240" fill="url(#glowL)"/>
    <rect x="270" y="2" width="430" height="240" fill="url(#glowR)"/>
  </g>
  <rect x="2" y="2" width="696" height="338" rx="18" fill="none" stroke="url(#bord)" stroke-width="2"/>

  <rect x="30.5" y="35.5" width="11" height="11" rx="2" fill="url(#acc)" transform="rotate(45 36 41)"/>
  <text x="56" y="48" font-size="19" font-weight="600" letter-spacing="4.5" fill="url(#acc)">TECH STACK</text>
  <text x="668" y="47" font-size="11" letter-spacing="2.5" text-anchor="end" fill="#484f58">AADITHBK</text>
  <line x1="32" y1="68" x2="668" y2="68" stroke="url(#div)" stroke-width="1.25"/>

  <!-- LANGUAGES -->
  <text x="32" y="100" font-size="11" font-weight="600" letter-spacing="2.8" fill="#7d8590">LANGUAGES</text>

  <rect x="32" y="112" width="88" height="36" rx="11" fill="#11161d" stroke="#262c36"/>
  <g transform="translate(48,121) scale(0.75)" fill="#E76F00"><path d="M11.915 0 11.7.215C9.515 2.4 7.47 6.39 6.046 10.483c-1.064 1.024-3.633 2.81-3.711 3.551-.093.87 1.746 2.611 1.55 3.235-.198.625-1.304 1.408-1.014 1.939.1.188.823.011 1.277-.491a13.389 13.389 0 0 0-.017 2.14c.076.906.27 1.668.643 2.232.372.563.956.911 1.667.911.397 0 .727-.114 1.024-.264.298-.149.571-.33.91-.5.68-.34 1.634-.666 3.53-.604 1.903.062 2.872.39 3.559.704.687.314 1.15.664 1.925.664.767 0 1.395-.336 1.807-.9.412-.563.631-1.33.72-2.24.06-.623.055-1.32 0-2.066.454.45 1.117.604 1.213.424.29-.53-.816-1.314-1.013-1.937-.198-.624 1.642-2.366 1.549-3.236-.08-.748-2.707-2.568-3.748-3.586C16.428 6.374 14.308 2.394 12.13.215zm.175 6.038a2.95 2.95 0 0 1 2.943 2.942 2.95 2.95 0 0 1-2.943 2.943A2.95 2.95 0 0 1 9.148 8.98a2.95 2.95 0 0 1 2.942-2.942zM8.685 7.983a3.515 3.515 0 0 0-.145.997c0 1.951 1.6 3.55 3.55 3.55 1.95 0 3.55-1.598 3.55-3.55 0-.329-.046-.648-.132-.951.334.095.64.208.915.336a42.699 42.699 0 0 1 2.042 5.829c.678 2.545 1.01 4.92.846 6.607-.082.844-.29 1.51-.606 1.94-.315.431-.713.651-1.315.651-.593 0-.932-.27-1.673-.61-.741-.338-1.825-.694-3.792-.758-1.974-.064-3.073.293-3.821.669-.375.188-.659.373-.911.5s-.466.2-.752.2c-.53 0-.876-.209-1.16-.64-.285-.43-.474-1.101-.545-1.948-.141-1.693.176-4.069.823-6.614a43.155 43.155 0 0 1 1.934-5.783c.348-.167.749-.31 1.192-.425zm-3.382 4.362a.216.216 0 0 1 .13.031c-.166.56-.323 1.116-.463 1.665a33.849 33.849 0 0 0-.547 2.555 3.9 3.9 0 0 0-.2-.39c-.58-1.012-.914-1.642-1.16-2.08.315-.24 1.679-1.755 2.24-1.781zm13.394.01c.562.027 1.926 1.543 2.24 1.783-.246.438-.58 1.068-1.16 2.08a4.428 4.428 0 0 0-.163.309 32.354 32.354 0 0 0-.562-2.49 40.579 40.579 0 0 0-.482-1.652.216.216 0 0 1 .127-.03z"/></g>
  <text x="76" y="135" font-size="13" fill="#c9d1d9">Java</text>

  <rect x="132" y="112" width="104" height="36" rx="11" fill="#11161d" stroke="#262c36"/>
  <g transform="translate(148,121) scale(0.75)" fill="#3776AB"><path d="M14.25.18l.9.2.73.26.59.3.45.32.34.34.25.34.16.33.1.3.04.26.02.2-.01.13V8.5l-.05.63-.13.55-.21.46-.26.38-.3.31-.33.25-.35.19-.35.14-.33.1-.3.07-.26.04-.21.02H8.77l-.69.05-.59.14-.5.22-.41.27-.33.32-.27.35-.2.36-.15.37-.1.35-.07.32-.04.27-.02.21v3.06H3.17l-.21-.03-.28-.07-.32-.12-.35-.18-.36-.26-.36-.36-.35-.46-.32-.59-.28-.73-.21-.88-.14-1.05-.05-1.23.06-1.22.16-1.04.24-.87.32-.71.36-.57.4-.44.42-.33.42-.24.4-.16.36-.1.32-.05.24-.01h.16l.06.01h8.16v-.83H6.18l-.01-2.75-.02-.37.05-.34.11-.31.17-.28.25-.26.31-.23.38-.2.44-.18.51-.15.58-.12.64-.1.71-.06.77-.04.84-.02 1.27.05zm-6.3 1.98l-.23.33-.08.41.08.41.23.34.33.22.41.09.41-.09.33-.22.23-.34.08-.41-.08-.41-.23-.33-.33-.22-.41-.09-.41.09zm13.09 3.95l.28.06.32.12.35.18.36.27.36.35.35.47.32.59.28.73.21.88.14 1.04.05 1.23-.06 1.23-.16 1.04-.24.86-.32.71-.36.57-.4.45-.42.33-.42.24-.4.16-.36.09-.32.05-.24.02-.16-.01h-8.22v.82h5.84l.01 2.76.02.36-.05.34-.11.31-.17.29-.25.25-.31.24-.38.2-.44.17-.51.15-.58.13-.64.09-.71.07-.77.04-.84.01-1.27-.04-1.07-.14-.9-.2-.73-.25-.59-.3-.45-.33-.34-.34-.25-.34-.16-.33-.1-.3-.04-.25-.02-.2.01-.13v-5.34l.05-.64.13-.54.21-.46.26-.38.3-.32.33-.24.35-.2.35-.14.33-.1.3-.06.26-.04.21-.02.13-.01h5.84l.69-.05.59-.14.5-.21.41-.28.33-.32.27-.35.2-.36.15-.36.1-.35.07-.32.04-.28.02-.21V6.07h2.09l.14.01zm-6.47 14.25l-.23.33-.08.41.08.41.23.33.33.23.41.08.41-.08.33-.23.23-.33.08-.41-.08-.41-.23-.33-.33-.23-.41-.08-.41.08z"/></g>
  <text x="176" y="135" font-size="13" fill="#c9d1d9">Python</text>

  <rect x="248" y="112" width="128" height="36" rx="11" fill="#11161d" stroke="#262c36"/>
  <g transform="translate(264,121) scale(0.75)" fill="#3178C6"><path d="M1.125 0C.502 0 0 .502 0 1.125v21.75C0 23.498.502 24 1.125 24h21.75c.623 0 1.125-.502 1.125-1.125V1.125C24 .502 23.498 0 22.875 0zm17.363 9.75c.612 0 1.154.037 1.627.111a6.38 6.38 0 0 1 1.306.34v2.458a3.95 3.95 0 0 0-.643-.361 5.093 5.093 0 0 0-.717-.26 5.453 5.453 0 0 0-1.426-.2c-.3 0-.573.028-.819.086a2.1 2.1 0 0 0-.623.242c-.17.104-.3.229-.393.374a.888.888 0 0 0-.14.49c0 .196.053.373.156.529.104.156.252.304.443.444s.423.276.696.41c.273.135.582.274.926.416.47.197.892.407 1.266.628.374.222.695.473.963.753.268.279.472.598.614.957.142.359.214.776.214 1.253 0 .657-.125 1.21-.373 1.656a3.033 3.033 0 0 1-1.012 1.085 4.38 4.38 0 0 1-1.487.596c-.566.12-1.163.18-1.79.18a9.916 9.916 0 0 1-1.84-.164 5.544 5.544 0 0 1-1.512-.493v-2.63a5.033 5.033 0 0 0 3.237 1.2c.333 0 .624-.03.872-.09.249-.06.456-.144.623-.25.166-.108.29-.234.373-.38a1.023 1.023 0 0 0-.074-1.089 2.12 2.12 0 0 0-.537-.5 5.597 5.597 0 0 0-.807-.444 27.72 27.72 0 0 0-1.007-.436c-.918-.383-1.602-.852-2.053-1.405-.45-.553-.676-1.222-.676-2.005 0-.614.123-1.141.369-1.582.246-.441.58-.804 1.004-1.089a4.494 4.494 0 0 1 1.47-.629 7.536 7.536 0 0 1 1.77-.201zm-15.113.188h9.563v2.166H9.506v9.646H6.789v-9.646H3.375z"/></g>
  <text x="292" y="135" font-size="13" fill="#c9d1d9">TypeScript</text>

  <rect x="388" y="112" width="130" height="36" rx="11" fill="#11161d" stroke="#262c36"/>
  <g transform="translate(404,121) scale(0.75)" fill="#F7DF1E"><path d="M0 0h24v24H0V0zm22.034 18.276c-.175-1.095-.888-2.015-3.003-2.873-.736-.345-1.554-.585-1.797-1.14-.091-.33-.105-.51-.046-.705.15-.646.915-.84 1.515-.66.39.12.75.42.976.9 1.034-.676 1.034-.676 1.755-1.125-.27-.42-.404-.601-.586-.78-.63-.705-1.469-1.065-2.834-1.034l-.705.089c-.676.165-1.32.525-1.71 1.005-1.14 1.291-.811 3.541.569 4.471 1.365 1.02 3.361 1.244 3.616 2.205.24 1.17-.87 1.545-1.966 1.41-.811-.18-1.26-.586-1.755-1.336l-1.83 1.051c.21.48.45.689.81 1.109 1.74 1.756 6.09 1.666 6.871-1.004.029-.09.24-.705.074-1.65l.046.067zm-8.983-7.245h-2.248c0 1.938-.009 3.864-.009 5.805 0 1.232.063 2.363-.138 2.711-.33.689-1.18.601-1.566.48-.396-.196-.597-.466-.83-.855-.063-.105-.11-.196-.127-.196l-1.825 1.125c.305.63.75 1.172 1.324 1.517.855.51 2.004.675 3.207.405.783-.226 1.458-.691 1.811-1.411.51-.93.402-2.07.397-3.346.012-2.054 0-4.109 0-6.179l.004-.056z"/></g>
  <text x="432" y="135" font-size="13" fill="#c9d1d9">JavaScript</text>

  <rect x="530" y="112" width="92" height="36" rx="11" fill="#11161d" stroke="#262c36"/>
  <g transform="translate(546,121) scale(0.75)" fill="#F05138"><path d="M7.508 0c-.287 0-.573 0-.86.002-.241.002-.483.003-.724.01-.132.003-.263.009-.395.015A9.154 9.154 0 0 0 4.348.15 5.492 5.492 0 0 0 2.85.645 5.04 5.04 0 0 0 .645 2.848c-.245.48-.4.972-.495 1.5-.093.52-.122 1.05-.136 1.576a35.2 35.2 0 0 0-.012.724C0 6.935 0 7.221 0 7.508v8.984c0 .287 0 .575.002.862.002.24.005.481.012.722.014.526.043 1.057.136 1.576.095.528.25 1.02.495 1.5a5.03 5.03 0 0 0 2.205 2.203c.48.244.97.4 1.498.495.52.093 1.05.124 1.576.138.241.007.483.009.724.01.287.002.573.002.86.002h8.984c.287 0 .573 0 .86-.002.241-.001.483-.003.724-.01a10.523 10.523 0 0 0 1.578-.138 5.322 5.322 0 0 0 1.498-.495 5.035 5.035 0 0 0 2.203-2.203c.245-.48.4-.972.495-1.5.093-.52.124-1.05.138-1.576.007-.241.009-.481.01-.722.002-.287.002-.575.002-.862V7.508c0-.287 0-.573-.002-.86a33.662 33.662 0 0 0-.01-.724 10.5 10.5 0 0 0-.138-1.576 5.328 5.328 0 0 0-.495-1.5A5.039 5.039 0 0 0 21.152.645 5.32 5.32 0 0 0 19.654.15a10.493 10.493 0 0 0-1.578-.138 34.98 34.98 0 0 0-.722-.01C17.067 0 16.779 0 16.492 0H7.508zm6.035 3.41c4.114 2.47 6.545 7.162 5.549 11.131-.024.093-.05.181-.076.272l.002.001c2.062 2.538 1.5 5.258 1.236 4.745-1.072-2.086-3.066-1.568-4.088-1.043a6.803 6.803 0 0 1-.281.158l-.02.012-.002.002c-2.115 1.123-4.957 1.205-7.812-.022a12.568 12.568 0 0 1-5.64-4.838c.649.48 1.35.902 2.097 1.252 3.019 1.414 6.051 1.311 8.197-.002C9.651 12.73 7.101 9.67 5.146 7.191a10.628 10.628 0 0 1-1.005-1.384c2.34 2.142 6.038 4.83 7.365 5.576C8.69 8.408 6.208 4.743 6.324 4.86c4.436 4.47 8.528 6.996 8.528 6.996.154.085.27.154.36.213.085-.215.16-.437.224-.668.708-2.588-.09-5.548-1.893-7.992z"/></g>
  <text x="574" y="135" font-size="13" fill="#c9d1d9">Swift</text>

  <!-- FRAMEWORKS & LIBRARIES -->
  <text x="32" y="182" font-size="11" font-weight="600" letter-spacing="2.8" fill="#7d8590">FRAMEWORKS &amp; LIBRARIES</text>

  <rect x="32" y="194" width="134" height="36" rx="11" fill="#11161d" stroke="#262c36"/>
  <g transform="translate(48,203) scale(0.75)" fill="#6DB33F"><path d="m23.693 10.7058-4.73-8.1844c-.4094-.7106-1.4166-1.2942-2.2402-1.2942H7.2725c-.819 0-1.8308.5836-2.2402 1.2942L.307 10.7058c-.4095.7106-.4095 1.873 0 2.5837l4.7252 8.189c.4094.7107 1.4166 1.2943 2.2402 1.2943h9.455c.819 0 1.826-.5836 2.2402-1.2942l4.7252-8.189c.4095-.7107.4095-1.8732 0-2.5838zM10.9763 5.7547c0-.5365.4377-.9742.9742-.9742s.9742.4377.9742.9742v5.8217c0 .5366-.4377.9742-.9742.9742s-.9742-.4376-.9742-.9742zm.9742 12.4294c-3.6427 0-6.6077-2.965-6.6077-6.6077.0047-2.0896.993-4.0521 2.6685-5.304a.8657.8657 0 0 1 1.2142.1788.8657.8657 0 0 1-.1788 1.2143c-2.1602 1.6048-2.612 4.6592-1.0072 6.8194 1.6049 2.1603 4.6593 2.612 6.8195 1.0072 1.2378-.9177 1.9673-2.372 1.9673-3.9157a4.8972 4.8972 0 0 0-1.9861-3.925c-.386-.2824-.466-.8284-.1836-1.2143.2824-.386.8283-.466 1.2143-.1835 1.6895 1.2471 2.6826 3.2238 2.6873 5.3228 0 3.6474-2.965 6.6077-6.6077 6.6077z"/></g>
  <text x="76" y="217" font-size="13" fill="#c9d1d9">Spring Boot</text>

  <rect x="178" y="194" width="120" height="36" rx="11" fill="#11161d" stroke="#262c36"/>
  <g transform="translate(194,203) scale(0.75)" fill="#6DB33F"><path d="M21.8537 1.4158a10.4504 10.4504 0 0 1-1.284 2.2471A11.9666 11.9666 0 1 0 3.8518 20.7757l.4445.3951a11.9543 11.9543 0 0 0 19.6316-8.2971c.3457-3.0126-.568-6.8649-2.0743-11.458zM5.5805 20.8745a1.0174 1.0174 0 1 1-.1482-1.4323 1.0396 1.0396 0 0 1 .1482 1.4323zm16.1991-3.5806c-2.9385 3.9263-9.2601 2.5928-13.2852 2.7904 0 0-.7161.0494-1.4323.1481 0 0 .2717-.1234.6174-.2469 2.8398-.9877 4.1732-1.1853 5.9018-2.0743 3.2349-1.6545 6.4698-5.2844 7.1118-9.0379-1.2347 3.6053-4.9881 6.7167-8.3959 7.9761-2.3459.8643-6.5685 1.7039-6.5685 1.7039l-.1729-.0988c-2.8645-1.4076-2.9632-7.6304 2.2718-9.6306 2.2966-.889 4.4696-.395 6.9637-.9877 2.6422-.6174 5.7043-2.5929 6.939-5.1857 1.3828 4.1732 3.062 10.643.0493 14.6434z"/></g>
  <text x="222" y="217" font-size="13" fill="#c9d1d9">Spring AI</text>

  <rect x="310" y="194" width="110" height="36" rx="11" fill="#11161d" stroke="#262c36"/>
  <g transform="translate(326,203) scale(0.75)" fill="#DD0031"><path d="M16.712 17.711H7.288l-1.204 2.916L12 24l5.916-3.373-1.204-2.916ZM14.692 0l7.832 16.855.814-12.856L14.692 0ZM9.308 0 .662 3.999l.814 12.856L9.308 0Zm-.405 13.93h6.198L12 6.396 8.903 13.93Z"/></g>
  <text x="354" y="217" font-size="13" fill="#c9d1d9">Angular</text>

  <rect x="432" y="194" width="112" height="36" rx="11" fill="#11161d" stroke="#262c36"/>
  <g transform="translate(448,203) scale(0.75)" fill="#5C3EE8"><path d="M11.8992.8525C8.735.8525 6.17 3.4175 6.17 6.5817c0 2.102 1.1321 3.9398 2.8198 4.9366l1.6412-2.7849c.0411-.0699.0176-.1593-.0495-.2048-.6233-.4227-1.0328-1.137-1.0328-1.947 0-1.298 1.0524-2.3504 2.3505-2.3504 1.2981 0 2.3505 1.0524 2.3505 2.3505 0 .8098-.4095 1.5242-1.0328 1.947-.0671.0454-.0907.1348-.0495.2047l1.6414 2.785c1.6878-.9969 2.8199-2.8346 2.8199-4.9367 0-3.1642-2.5653-5.7292-5.7295-5.7292zm-6.17 10.8366C2.565 11.6891 0 14.2541 0 17.4183c0 3.1642 2.565 5.7292 5.7292 5.7292 3.1798 0 5.8074-2.6995 5.7275-5.8762H8.2313c-.0847 0-.1513.0717-.1519.1564-.0082 1.266-1.0644 2.3411-2.3502 2.3411-1.2981 0-2.3505-1.0524-2.3505-2.3505 0-1.2982 1.0524-2.3505 2.3505-2.3505.34 0 .663.0724.9547.2022.0713.0318.1566.0077.1962-.0595l1.6464-2.7935c-.8273-.4636-1.7815-.7279-2.7973-.7279zm15.4424.7614l-1.6366 2.7878c-.041.07-.0172.1594.05.2048.624.4217 1.0348 1.1354 1.0363 1.9452.0022 1.298-1.0483 2.352-2.3465 2.3542-1.298.0023-2.3523-1.0482-2.3545-2.3462-.0015-.8098.4068-1.5248 1.0294-1.9486.067-.0457.0905-.1353.0492-.2051l-1.6464-2.7818c-1.6859.9998-2.8146 2.8394-2.811 4.9415.0056 3.1641 2.575 5.7248 5.7393 5.7192 3.1641-.0054 5.7246-2.575 5.7192-5.7392-.0037-2.1022-1.139-3.938-2.8284-4.9318z"/></g>
  <text x="476" y="217" font-size="13" fill="#c9d1d9">OpenCV</text>

  <!-- TOOLS -->
  <text x="32" y="264" font-size="11" font-weight="600" letter-spacing="2.8" fill="#7d8590">TOOLS</text>

  <rect x="32" y="276" width="80" height="36" rx="11" fill="#11161d" stroke="#262c36"/>
  <g transform="translate(48,285) scale(0.75)" fill="#F05032"><path d="M23.546 10.93L13.067.452c-.604-.603-1.582-.603-2.188 0L8.708 2.627l2.76 2.76c.645-.215 1.379-.07 1.889.441.516.515.658 1.258.438 1.9l2.658 2.66c.645-.223 1.387-.078 1.9.435.721.72.721 1.884 0 2.604-.719.719-1.881.719-2.6 0-.539-.541-.674-1.337-.404-1.996L12.86 8.955v6.525c.176.086.342.203.488.348.713.721.713 1.883 0 2.6-.719.721-1.889.721-2.609 0-.719-.719-.719-1.879 0-2.598.182-.18.387-.316.605-.406V8.835c-.217-.091-.424-.222-.6-.401-.545-.545-.676-1.342-.396-2.009L7.636 3.7.45 10.881c-.6.605-.6 1.584 0 2.189l10.48 10.477c.604.604 1.582.604 2.186 0l10.43-10.43c.605-.603.605-1.582 0-2.187"/></g>
  <text x="76" y="299" font-size="13" fill="#c9d1d9">Git</text>

  <rect x="124" y="276" width="106" height="36" rx="11" fill="#11161d" stroke="#262c36"/>
  <g transform="translate(140,285) scale(0.75)" fill="#e6edf3"><path d="M12 .297c-6.63 0-12 5.373-12 12 0 5.303 3.438 9.8 8.205 11.385.6.113.82-.258.82-.577 0-.285-.01-1.04-.015-2.04-3.338.724-4.042-1.61-4.042-1.61C4.422 18.07 3.633 17.7 3.633 17.7c-1.087-.744.084-.729.084-.729 1.205.084 1.838 1.236 1.838 1.236 1.07 1.835 2.809 1.305 3.495.998.108-.776.417-1.305.76-1.605-2.665-.3-5.466-1.332-5.466-5.93 0-1.31.465-2.38 1.235-3.22-.135-.303-.54-1.523.105-3.176 0 0 1.005-.322 3.3 1.23.96-.267 1.98-.399 3-.405 1.02.006 2.04.138 3 .405 2.28-1.552 3.285-1.23 3.285-1.23.645 1.653.24 2.873.12 3.176.765.84 1.23 1.91 1.23 3.22 0 4.61-2.805 5.625-5.475 5.92.42.36.81 1.096.81 2.22 0 1.606-.015 2.896-.015 3.286 0 .315.21.69.825.57C20.565 22.092 24 17.592 24 12.297c0-6.627-5.373-12-12-12"/></g>
  <text x="168" y="299" font-size="13" fill="#c9d1d9">GitHub</text>

  <rect x="242" y="276" width="102" height="36" rx="11" fill="#11161d" stroke="#262c36"/>
  <g transform="translate(258,285) scale(0.75)" fill="#C71A36"><path d="M4.237.001c-.312-.013-.665.072-.828.457-.158.374-.283 1.188-.34 2.276l1.223.591c-.02-.737.007-1.43.076-2.066-.026.299-.056.96.006 2.039.019.342.049.725.088 1.15.002.024.002.047.007.069a45.485 45.485 0 0 0 .309 2.412c.057.368.126.752.195 1.16l-.01.01c.014.01.015.018.014.023l.03.16c.03.162.06.328.093.494l.108.553.056.289a61.72 61.72 0 0 0 .457 2.068c.09.382.186.78.287 1.186.098.386.199.783.309 1.193.096.362.199.735.303 1.117.003.018.012.036.015.055a145.826 145.826 0 0 0 .34 1.185l.049.174c.078.261.158.533.242.805a4.2 4.2 0 0 1-.293-.135l-.19-.654c-.02-.077-.042-.148-.062-.225l-.002-.004-.004-.002c-.087-.3-.17-.607-.257-.916-.023-.087-.044-.173-.069-.263l-.314-1.178c-.1-.381-.194-.765-.29-1.154-.094-.39-.185-.78-.277-1.172-.093-.401-.181-.8-.265-1.203-.085-.396-.161-.798-.24-1.193a50.315 50.315 0 0 1-.211-1.17c-.004-.013-.006-.03-.01-.041l.004-.002c-.057-.386-.116-.77-.174-1.15a60.905 60.905 0 0 1-.154-1.204 27.447 27.447 0 0 1-.172-2.41l-1.22-.59c-.004.074-.01.15-.013.23-.012.294-.02.605-.023.93a45.3 45.3 0 0 0 .006 1.157c.009.37.025.755.045 1.148.02.336.042.675.07 1.022l.002.039.006.004c.003.023.007.05.006.076.033.368.064.739.107 1.115a34.493 34.493 0 0 0 .303 2.125c.01.064.024.131.035.195a23.418 23.418 0 0 0 .547 2.32c.07.237.14.464.21.68.063.182.13.365.194.545.155.422.327.832.512 1.232l.006.004a.318.318 0 0 0 .02.05c.225.485.475.95.755 1.395.01.013.02.033.03.047-.455-.183-1.259-.098-1.253-.097.83.288 1.557.64 2.016 1.175-.183.2-.523.352-.953.477.594.064.924-.039 1.045-.092-.31.26-.483.732-.635 1.24.35-.57.696-.949 1.033-1.094.078.258.162.524.244.788A147.532 147.532 0 0 0 5.157 24a.56.56 0 0 0 .43-.312c.13-.282.83-1.775 1.908-3.875.413 1.303.88 2.679 1.386 4.109a.494.494 0 0 0 .076-.465 103.735 103.735 0 0 1-1.308-3.945c.154-.299.316-.612.484-.932.125.04.255.094.389.155.203.186.352.491.482.84a1.515 1.515 0 0 0-.334-1.098c1.335.258 2.547.09 3.287-.81a3.97 3.97 0 0 0 .192-.258c-.325.304-.682.404-1.313.273.996-.281 1.523-.617 2.035-1.22.12-.145.244-.303.371-.48-.943.722-1.927.822-2.9.493l-.045-.018c.914.02 2.203-.474 3.092-1.189.41-.33.796-.73 1.17-1.21.28-.359.55-.76.82-1.216.234-.393.468-.824.7-1.293a2.83 2.83 0 0 1-.74.137l-.144.008c-.048.002-.093 0-.146.002.885-.198 1.5-.74 1.994-1.447-.24.117-.628.262-1.07.297-.058.006-.12.006-.182.006-.013-.002-.028 0-.047-.002.306-.078.574-.178.81-.309a3.363 3.363 0 0 0 .358-.236c.044-.037.088-.07.13-.106.099-.086.193-.18.28-.287.028-.034.056-.063.08-.098.036-.05.073-.098.104-.146a8.388 8.388 0 0 0 .51-.828c.015-.031.032-.057.046-.088.04-.084.08-.16.11-.227.042-.099.074-.179.092-.238a.515.515 0 0 1-.108.051c-.273.112-.727.187-1.086.201-.004 0-.008 0-.013.004h-.067c.72-.214 1.067-.45 1.422-.818a13.883 13.883 0 0 0 1.154-1.428c.264-.37.505-.738.692-1.072a6.5 6.5 0 0 0 .298-.592c.066-.157.122-.305.172-.45-.466.01-.986.011-1.48 0 .495.01 1.015.007 1.484-.005.5-1.485.063-2.262.063-2.262s-.526-1.212-1.4-.851c-.426.175-1.172.73-2.083 1.56l.514 1.45a17.561 17.561 0 0 1 1.703-1.602c-.257.22-.807.726-1.615 1.644-.256.29-.537.624-.844.997-.017.02-.035.038-.047.06a51.435 51.435 0 0 0-1.666 2.187c-.248.34-.498.704-.765 1.088h-.016c.002.02-.004.028-.01.032l-.101.152c-.104.155-.213.31-.318.47l-.352.534c-.061.09-.124.181-.186.277-.184.282-.367.573-.558.873a97.351 97.351 0 0 0-1.428 2.338 96.866 96.866 0 0 0-1.341 2.343c-.012.017-.02.04-.034.057a197.256 197.256 0 0 0-.668 1.223l-.097.181c-.17.318-.346.642-.52.979 0 .004-.005.008-.006.013-.026.048-.05.093-.072.141-.117.222-.218.424-.45.87a1.352 1.352 0 0 0-.233-.182l.345-.65c.047-.089.096-.177.143-.27l.04-.077.546-1.001.13-.233v-.006l-.001-.006c.169-.31.345-.62.52-.94.051-.087.102-.173.153-.265.224-.395.454-.794.684-1.197a91.685 91.685 0 0 1 2.135-3.504c.247-.386.503-.77.754-1.152.092-.138.182-.272.279-.41a72.9 72.9 0 0 1 .48-.701c.007-.012.019-.024.026-.037h.006c.26-.356.517-.713.773-1.065.278-.373.554-.735.83-1.09a31.075 31.075 0 0 1 1.777-2.075l-.515-1.446c-.06.057-.126.116-.192.178a32.37 32.37 0 0 0-.758.729c-.295.294-.597.606-.912.935a46.032 46.032 0 0 0-1.632 1.838l-.03.033.002.008c-.017.02-.033.044-.054.064-.266.323-.538.649-.801.985a39.105 39.105 0 0 0-1.445 1.95c-.043.06-.085.126-.127.186a26.458 26.458 0 0 0-1.403 2.303c-.13.247-.256.485-.37.715-.096.195-.187.395-.278.591-.21.463-.398.93-.566 1.399l.002.006a.36.36 0 0 0-.026.058c-.108.303-.203.608-.29.914-.14.174-.302.325-.483.46a3.505 3.505 0 0 0-.131-.153 5.148 5.148 0 0 0 .824-2.211 6.4 6.4 0 0 0-.016-1.488c-.046-.4-.126-.82-.238-1.274-.097-.393-.217-.81-.363-1.248-.091.185-.22.367-.379.545l-.086.094c-.029.032-.06.06-.092.094.434-.674.486-1.397.358-2.148a2.722 2.722 0 0 1-.49.85c-.033.038-.072.077-.11.116-.01.007-.019.018-.033.028.144-.24.25-.467.318-.698a1.29 1.29 0 0 0 .04-.146 2.85 2.85 0 0 0 .038-.225l.018-.146a2.11 2.11 0 0 0-.002-.354c-.003-.04-.004-.076-.01-.113-.01-.055-.016-.105-.027-.154a7.416 7.416 0 0 0-.193-.84c-.01-.028-.015-.056-.026-.084-.027-.079-.048-.149-.072-.209a2.1 2.1 0 0 0-.09-.209.455.455 0 0 1-.035.1c-.102.24-.34.57-.557.8-.003.003-.007.005-.007.01l-.04.043c.318-.58.39-.946.385-1.398a12.274 12.274 0 0 0-.16-1.615 10.68 10.68 0 0 0-.232-1.104 5.853 5.853 0 0 0-.18-.558 6.337 6.337 0 0 0-.172-.391 26.18 26.18 0 0 0 .002-.004C5.576.341 4.82.124 4.82.124s-.27-.11-.582-.123zm3.38 15.783l.032.082v.002c-.06.033-.116.067-.178.097-.012.004-.024.012-.039.018a2.41 2.41 0 0 0 .186-.2zm-.603 1.626c.13.136.25.242.354.32l.07.227a1.866 1.866 0 0 0-.246.053l-.03-.098c-.024-.084-.048-.17-.076-.257l-.021-.073zm.26.875a2.34 2.34 0 0 1 .271.01l.07.229a.778.778 0 0 1 .247-.004l-.326.627a127.643 127.643 0 0 1-.262-.862z"/></g>
  <text x="286" y="299" font-size="13" fill="#c9d1d9">Maven</text>

  <rect x="356" y="276" width="100" height="36" rx="11" fill="#11161d" stroke="#262c36"/>
  <g transform="translate(372,285) scale(0.75)" fill="#147EFB"><path d="M19.06 5.3327c.4517-.1936.7744-.2581 1.097-.1936.5163.1291.7744.5163.968.7098.1936.3872.9034.7744 1.2261.8389.2581.0645.7098-.6453 1.0325-1.2906.3227-.5808.5163-1.3552.4517-1.5488-.0645-.1936-.968-.5808-1.1616-.5808-.1291 0-.3872.1291-.8389.0645-.4517-.0645-.9034-.5808-1.1616-.968-.4517-.6453-1.097-1.0325-1.6778-1.3552-.6453-.3227-1.3552-.5163-2.065-.6453-1.0325-.2581-2.065-.4517-3.0975-.3227-.5808.0645-1.2906.1291-1.8069.3227-.0645 0-.1936.1936-.0645.1936s.5808.0645.5808.0645-.5807.1292-.5807.2583c0 .1291.0645.1291.1291.1291.0645 0 1.4842-.0645 2.065 0 .6453.1291 1.3552.4517 1.8069 1.2261.7744 1.4197.4517 2.7749.2581 3.2266-.968 2.1295-8.6472 15.2294-9.0344 16.1328-.3873.9034-.5163 1.4842.5807 2.065s1.6778.3227 2.0005-.0645c.3872-.5163 7.0339-17.1654 9.2925-18.2624zm-3.6138 8.7117h1.5488c1.0325 0 1.2261.5163 1.2261.7098.0645.5163-.1936 1.1616-1.2261 1.1616h-.968l.7744 1.2906c.4517.7744.2581 1.1616 0 1.4197-.3872.3872-1.2261.3872-1.6778-.4517l-.9034-1.5488c-.6453 1.4197-1.2906 2.9684-2.065 4.7753h4.0009c1.9359 0 3.5492-1.6133 3.5492-3.5492V6.5588c-.0645-.1291-.1936-.0645-.2581 0-.3872.4517-1.4842 2.0004-4.001 7.4856zm-9.8087 8.0019h-.3227c-2.3231 0-4.1945-1.8714-4.1945-4.1945V7.0105c0-2.3231 1.8714-4.1945 4.1945-4.1945h9.3571c-.1936-.1936-.968-.5163-1.7423-.4517-.3227 0-.968.1291-1.3552-.1291-.3872-.3227-.3227-.5163-.9034-.5163H4.9277c-2.6458 0-4.7753 2.1295-4.7753 4.7753v11.7447c0 2.6458 2.1295 4.7753 4.4527 4.7108.6452 0 .8388-.5162 1.0324-.9034zM20.4152 6.9459v10.9058c0 2.3231-1.8714 4.1945-4.1945 4.1945H11.897s-.3872 1.0325.8389 1.0325h3.8719c2.6458 0 4.7753-2.1295 4.7753-4.7753V8.8173c.0646-.9034-.7098-1.4842-.9679-1.8714zm-18.5851.0646v10.8413c0 1.9359 1.6133 3.5492 3.5492 3.5492h.5808c0-.0645.7744-1.4197 2.4522-4.2591.1936-.3872.4517-.7744.7098-1.2261H4.4114c-.5808 0-.9034-.3872-.968-.7098-.1291-.5163.1936-1.1616.9034-1.1616h2.3877l3.033-5.2916s-.7098-1.2906-.9034-1.6133c-.2582-.4517-.1291-.9034.129-1.1615.3872-.3872 1.0325-.5808 1.6778.4517l.2581.3872.2581-.3872c.5808-.8389.968-.7744 1.2906-.7098.5163.1291.8389.7098.3872 1.6133L8.864 14.0444h1.3552c.4517-.7744.9034-1.5488 1.3552-2.3877-.0645-.3227-.1291-.7098-.0645-1.0325.0645-.5163.3227-.968.6453-1.3552l.3872.6453c1.2261-2.1295 2.1295-3.9364 2.3877-4.6463.1291-.3872.3227-1.1616.1291-1.8069H5.3794c-2.0005.0001-3.5493 1.6134-3.5493 3.5494zM4.605 17.7872c0-.0645.7744-1.4197.7744-1.4197 1.2261-.3227 1.8069.4517 1.8714.5163 0 0-.8389 1.4842-1.097 1.7423s-.5808.3227-.9034.2581c-.5164-.129-.839-.6453-.6454-1.097z"/></g>
  <text x="400" y="299" font-size="13" fill="#c9d1d9">Xcode</text>
</svg>
